<svg width="7" height="6" viewBox="0 0 7 6" fill="none" xmlns="http://www.w3.org/2000/svg">
<path d="M4.87279 1.37135C4.80673 1.37291 4.74397 1.40056 4.69823 1.44825L3.49999 2.64649L2.30175 1.44825C2.27842 1.42427 2.25052 1.40522 2.2197 1.39222C2.18888 1.37922 2.15576 1.37254 2.12231 1.37257C2.07259 1.37263 2.02403 1.38751 1.98281 1.41531C1.9416 1.4431 1.9096 1.48256 1.89092 1.52862C1.87224 1.57469 1.86771 1.62528 1.87792 1.67394C1.88813 1.72259 1.91261 1.76709 1.94823 1.80177L3.14648 3.00001L1.94823 4.19825C1.92424 4.22129 1.90508 4.24888 1.89189 4.27941C1.87869 4.30994 1.87172 4.3428 1.87138 4.37606C1.87104 4.40932 1.87734 4.44232 1.88992 4.47311C1.90249 4.50391 1.92108 4.53188 1.9446 4.5554C1.96812 4.57892 1.9961 4.59751 2.02689 4.61008C2.05768 4.62266 2.09068 4.62896 2.12394 4.62862C2.1572 4.62828 2.19006 4.62131 2.22059 4.60811C2.25112 4.59492 2.27871 4.57576 2.30175 4.55177L3.49999 3.35352L4.69823 4.55177C4.72127 4.57576 4.74886 4.59492 4.77939 4.60811C4.80993 4.62131 4.84278 4.62828 4.87604 4.62862C4.90931 4.62896 4.9423 4.62266 4.97309 4.61009C5.00389 4.59751 5.03186 4.57892 5.05538 4.5554C5.0789 4.53188 5.09749 4.50391 5.11007 4.47311C5.12264 4.44232 5.12894 4.40932 5.1286 4.37606C5.12826 4.3428 5.12129 4.30994 5.10809 4.27941C5.0949 4.24888 5.07574 4.22129 5.05175 4.19825L3.85351 3.00001L5.05175 1.80177C5.08813 1.76688 5.11311 1.72182 5.12343 1.67249C5.13375 1.62315 5.12892 1.57185 5.10957 1.52532C5.09022 1.47878 5.05726 1.43917 5.015 1.4117C4.97275 1.38422 4.92318 1.37016 4.87279 1.37135Z" fill="#637394"/>
</svg>
