<svg width="41" height="48" viewBox="0 0 41 48" fill="none" xmlns="http://www.w3.org/2000/svg">
<path d="M30.4788 48H33.559C33.7996 48 34.0039 47.8358 34.056 47.6008C34.2895 46.5461 39.7817 21.6792 40.5948 13.9449C40.6725 13.2052 40.4176 12.4669 39.8769 11.8663C39.1532 11.0626 38.0117 10.5826 36.8238 10.5826C36.1292 10.5826 35.4551 10.7514 34.8689 11.0647L32.9843 26.921C33.4221 27.6664 33.6522 28.463 33.6522 29.2913C33.6522 30.4734 33.1884 31.5919 32.311 32.5867L30.4788 48Z" fill="#637394"/>
<path d="M23.7649 10.5826C23.0887 10.5826 22.4327 10.7441 21.8577 11.0416V22.0415C22.9143 22.0991 23.9438 22.2238 24.928 22.411L25.6416 11.0269C25.0735 10.7391 24.4291 10.5826 23.7649 10.5826Z" fill="#637394"/>
<path d="M19.1424 11.0414C18.5674 10.7439 17.9114 10.5825 17.2352 10.5825C16.5708 10.5825 15.9264 10.7391 15.3586 11.0266L16.0722 22.4107C17.0564 22.2235 18.0858 22.0988 19.1426 22.0412V11.0414H19.1424Z" fill="#637394"/>
<path d="M10.0632 29.2913C10.0632 31.4497 14.5266 33.8639 20.4999 33.8639C26.4734 33.8639 30.9369 31.4497 30.9369 29.2913C30.9369 27.1329 26.4736 24.7187 20.4999 24.7187C14.5267 24.7187 10.0632 27.1328 10.0632 29.2913Z" fill="#637394"/>
<path d="M32.1407 11.012C31.5801 10.7341 30.947 10.5826 30.2941 10.5826C29.6076 10.5826 28.9414 10.7483 28.3599 11.0547L27.604 23.1146C28.2569 23.3399 28.8754 23.5967 29.4497 23.8855C29.8383 24.0809 30.1989 24.2891 30.5367 24.5065L32.1407 11.012Z" fill="#637394"/>
<path d="M6.1312 11.0647C5.54502 10.7514 4.87092 10.5826 4.17629 10.5826C2.98825 10.5826 1.84676 11.0625 1.1232 11.8663C0.582435 12.4669 0.327566 13.2052 0.405304 13.945C1.21839 21.6793 6.7106 46.5461 6.94413 47.6008C6.99617 47.8358 7.20046 48 7.4411 48H10.5213L8.68926 32.5863C7.81201 31.5916 7.34833 30.473 7.34833 29.2913C7.34833 28.4632 7.57831 27.6667 8.01597 26.9215L6.1312 11.0647Z" fill="#637394"/>
<path d="M10.706 10.5826C10.0532 10.5826 9.42002 10.7342 8.85938 11.012L10.4633 24.5065C10.801 24.2891 11.1616 24.0809 11.5504 23.8854C12.1245 23.5967 12.7432 23.3399 13.3959 23.1146L12.6401 11.0547C12.0586 10.7483 11.3925 10.5826 10.706 10.5826Z" fill="#637394"/>
<path d="M13.2555 48H14.9554L14.1858 35.7193C13.2887 35.456 12.4483 35.1352 11.6819 34.7603L13.2555 48Z" fill="#637394"/>
<path d="M4.1764 8.20687C5.33664 8.20687 6.46796 8.51103 7.44121 9.07491C8.41446 8.51103 9.54578 8.20687 10.706 8.20687C11.8661 8.20687 12.9974 8.51103 13.9708 9.07507C14.9441 8.51103 16.0754 8.20687 17.2355 8.20687C18.3957 8.20687 19.527 8.51103 20.5003 9.07491C21.4735 8.51103 22.6048 8.20687 23.7651 8.20687C24.9252 8.20687 26.0565 8.51103 27.0297 9.07507C28.0032 8.51103 29.1345 8.20687 30.2945 8.20687C31.4548 8.20687 32.5861 8.51103 33.5594 9.07491C34.5326 8.51103 35.6639 8.20687 36.8242 8.20687C37.2327 8.20687 37.6384 8.24663 38.0358 8.31936C38.0326 8.31612 38.0292 8.31257 38.0261 8.30934C37.8061 8.08534 37.5789 7.85358 37.4842 7.6973C37.4275 7.59677 37.3447 7.26045 37.2898 7.03806C37.0955 6.24954 36.8297 5.16978 35.884 4.40323C35.1017 3.76873 34.1678 3.68065 33.4176 3.61002C33.1088 3.58109 32.6857 3.54101 32.5494 3.47265C32.4461 3.40671 32.2087 3.12533 32.0515 2.93899C31.5854 2.38691 30.947 1.63119 29.951 1.30214C29.0393 1.00105 28.1657 1.19418 27.4637 1.34917C27.1865 1.41042 26.7671 1.50335 26.6435 1.48186C26.5221 1.44388 26.212 1.22068 26.0067 1.07297C25.4099 0.643553 24.6671 0.109088 23.6717 0.0137345C22.7206 -0.0770938 21.9144 0.290745 21.2659 0.586664C21.0147 0.70125 20.6349 0.874341 20.5035 0.881614C20.3658 0.874503 19.9859 0.701089 19.7344 0.586664C19.0857 0.290745 18.2776 -0.076609 17.3284 0.0138962C16.3332 0.10925 15.5902 0.643553 14.9934 1.07297C14.7881 1.22068 14.4778 1.44388 14.3718 1.47814C14.2315 1.50303 13.8137 1.41042 13.5364 1.34917C12.8345 1.19369 11.961 1.00105 11.0496 1.30214C10.0537 1.63087 9.41535 2.38675 8.94909 2.93883C8.79184 3.12485 8.55426 3.40638 8.4644 3.46505C8.31475 3.54101 7.8918 3.58093 7.58295 3.60986C6.83272 3.68065 5.89923 3.76857 5.11717 4.40275C4.17123 5.16962 3.90521 6.24938 3.71111 7.03758C3.65632 7.26012 3.57341 7.59645 3.51765 7.69519C3.42165 7.85358 3.19442 8.08534 2.97462 8.30934C2.97155 8.31257 2.96816 8.31596 2.96509 8.31919C3.36218 8.24679 3.76784 8.20687 4.1764 8.20687Z" fill="#637394"/>
<path d="M27.7446 48L29.3182 34.7603C28.5518 35.1352 27.7114 35.456 26.8143 35.7191L26.0447 48H27.7446Z" fill="#637394"/>
<path d="M23.3241 48L24.056 36.3197C23.3411 36.426 22.606 36.5004 21.8574 36.5411V48H23.3241Z" fill="#637394"/>
<path d="M19.1425 48V36.5411C18.3939 36.5004 17.6588 36.426 16.9438 36.3197L17.676 48H19.1425Z" fill="#637394"/>
</svg>
