<svg width="299" height="20" viewBox="0 0 299 20" fill="none" xmlns="http://www.w3.org/2000/svg">
<path d="M149.251 8.5C72.6736 8.5 9.62825 11.6198 1.55577 15.6278C0.807659 15.9993 1.5475 16.4696 2.54555 16.4343C118.534 21.3398 183.374 21.0351 295.954 16.4337C296.953 16.4692 297.693 15.9989 296.945 15.6274C288.869 11.6196 225.825 8.5 149.251 8.5Z" fill="url(#paint0_linear_1_4608)"/>
<path d="M1.25024 16C9.33943 11.7827 72.5152 8.5 149.251 8.5C225.984 8.5 289.158 11.7825 297.25 15.9996" stroke="#253554" stroke-width="2" stroke-linecap="round"/>
<path d="M129.922 9C129.246 9 128.672 8.8855 128.202 8.65651C127.732 8.42013 127.331 8.11727 127 7.74792L128.103 6.62881C128.625 7.21976 129.268 7.51523 130.032 7.51523C130.443 7.51523 130.748 7.43029 130.947 7.26039C131.145 7.09049 131.244 6.86519 131.244 6.58449C131.244 6.37027 131.186 6.19298 131.068 6.05263C130.95 5.90489 130.712 5.80517 130.352 5.75346L129.591 5.65374C128.775 5.55032 128.176 5.30286 127.794 4.91136C127.419 4.51985 127.232 3.99908 127.232 3.34903C127.232 3.00185 127.298 2.68421 127.43 2.39612C127.563 2.10803 127.75 1.86057 127.993 1.65374C128.242 1.44691 128.544 1.28809 128.896 1.17729C129.257 1.0591 129.664 1 130.12 1C130.701 1 131.211 1.09234 131.652 1.27701C132.093 1.46168 132.472 1.7313 132.788 2.08587L131.674 3.21607C131.491 3.00185 131.266 2.82825 131.002 2.69529C130.745 2.55494 130.418 2.48476 130.021 2.48476C129.646 2.48476 129.367 2.55125 129.183 2.68421C128.999 2.81717 128.907 3.00185 128.907 3.23823C128.907 3.50415 128.977 3.69621 129.117 3.8144C129.264 3.93259 129.499 4.01754 129.822 4.06925L130.583 4.19114C131.377 4.31671 131.965 4.56417 132.347 4.93352C132.729 5.29548 132.92 5.81256 132.92 6.48476C132.92 6.85411 132.854 7.19391 132.721 7.50415C132.589 7.8144 132.394 8.08033 132.137 8.30194C131.887 8.52354 131.575 8.69714 131.2 8.82271C130.825 8.9409 130.399 9 129.922 9Z" fill="#637394"/>
<path d="M138.299 9C137.778 9 137.307 8.91874 136.888 8.75623C136.47 8.58633 136.113 8.33887 135.819 8.01385C135.525 7.68144 135.297 7.27147 135.136 6.78393C134.974 6.28901 134.893 5.71283 134.893 5.0554C134.893 4.40536 134.974 3.82918 135.136 3.32687C135.297 2.81717 135.525 2.39243 135.819 2.05263C136.113 1.70545 136.47 1.44321 136.888 1.26593C137.307 1.08864 137.778 1 138.299 1C139.012 1 139.6 1.14774 140.063 1.44321C140.526 1.7313 140.897 2.18929 141.176 2.81717L139.732 3.57064C139.63 3.24561 139.468 2.98707 139.247 2.79501C139.034 2.59557 138.718 2.49584 138.299 2.49584C137.807 2.49584 137.41 2.65836 137.109 2.98338C136.815 3.30102 136.668 3.76639 136.668 4.3795V5.6205C136.668 6.23361 136.815 6.70268 137.109 7.0277C137.41 7.34534 137.807 7.50415 138.299 7.50415C138.711 7.50415 139.038 7.39335 139.28 7.17174C139.53 6.94275 139.714 6.66944 139.832 6.3518L141.198 7.14958C140.912 7.74053 140.533 8.19852 140.063 8.52354C139.6 8.84118 139.012 9 138.299 9Z" fill="#637394"/>
<path d="M144.928 8.86704H143.253V1.13296H146.901C147.254 1.13296 147.574 1.19206 147.86 1.31025C148.147 1.42844 148.39 1.59834 148.588 1.81994C148.794 2.03416 148.952 2.29271 149.062 2.59557C149.172 2.89843 149.227 3.23453 149.227 3.60388C149.227 4.12835 149.11 4.58633 148.875 4.97784C148.647 5.36934 148.298 5.65374 147.827 5.83102L149.338 8.86704H147.475L146.13 6.03047H144.928V8.86704ZM146.692 4.61219C146.942 4.61219 147.137 4.5494 147.276 4.42382C147.423 4.29086 147.497 4.0988 147.497 3.84765V3.36011C147.497 3.10896 147.423 2.92059 147.276 2.79501C147.137 2.66205 146.942 2.59557 146.692 2.59557H144.928V4.61219H146.692Z" fill="#637394"/>
<path d="M151.562 8.86704V1.13296H156.798V2.62881H153.238V4.2133H156.291V5.69806H153.238V7.37119H156.798V8.86704H151.562Z" fill="#637394"/>
<path d="M159.14 8.86704V1.13296H164.376V2.62881H160.815V4.2133H163.869V5.69806H160.815V7.37119H164.376V8.86704H159.14Z" fill="#637394"/>
<path d="M169.065 5.21053L168.327 3.65928H168.294V8.86704H166.717V1.13296H168.547L170.653 4.78947L171.391 6.34072H171.424V1.13296H173V8.86704H171.171L169.065 5.21053Z" fill="#637394"/>
<defs>
<linearGradient id="paint0_linear_1_4608" x1="149.25" y1="8.5" x2="149.25" y2="20" gradientUnits="userSpaceOnUse">
<stop stop-color="#1F293D"/>
<stop offset="1" stop-color="#1F293D" stop-opacity="0"/>
</linearGradient>
</defs>
</svg>
