<svg width="40" height="40" viewBox="0 0 40 40" fill="none" xmlns="http://www.w3.org/2000/svg">
<path d="M5.33335 6.66663C3.86002 6.66663 2.66669 7.85996 2.66669 9.33329V30.6666C2.66669 32.14 3.86002 33.3333 5.33335 33.3333H34.6667C36.14 33.3333 37.3334 32.14 37.3334 30.6666V9.33329C37.3334 7.85996 36.14 6.66663 34.6667 6.66663H5.33335ZM6.4219 16.4635H8.71096L11.737 23.2578V16.4635H14.4531L16.5703 21.1953L18.6953 16.4635H21.461V23.5208H19.7318V18.3698L17.3594 23.5208H15.7865L13.4714 18.2812V23.5208H9.98179L9.2969 21.9427H5.83856L5.16148 23.5208H3.33335L6.4219 16.4635ZM23.7292 16.4635H30.5573L32.4766 18.6692L34.461 16.4791H36.6667L33.5651 19.914L36.6432 23.5338H34.4453L32.4141 21.1875L30.336 23.5208H23.7292V16.4635ZM7.52346 17.9531L6.4896 20.4192H8.59898L7.52346 17.9531ZM25.4375 17.9843V19.3046H29.2578V20.6458H25.4375V22.039H29.4297L31.336 19.914L29.6511 17.9948L25.4375 17.9843Z" fill="#637394"/>
</svg>
