<svg width="40" height="40" viewBox="0 0 40 40" fill="none" xmlns="http://www.w3.org/2000/svg">
<g clip-path="url(#clip0_1_7905)">
<path d="M7.98701 12.2682C7.31901 12.3002 6.49547 12.7255 6.02347 13.3229C5.59147 13.8389 5.2218 14.6756 5.31513 15.4609C6.0698 15.5262 6.82624 15.0683 7.2969 14.4869C7.7609 13.8883 8.06567 13.0869 7.98701 12.2682ZM14.4011 13.8671V25.8671H16.2995V21.8671H18.9011C21.2877 21.8671 23 20.2071 23 17.8671C23 15.5271 21.3182 13.8671 18.9636 13.8671H14.4011ZM16.2995 15.4661H18.5C20.1374 15.4661 21.099 16.3511 21.099 17.8671C21.099 19.3831 20.1454 20.2656 18.5 20.2656H16.2995V15.4661ZM7.90107 15.8671C6.80107 15.8671 6.01336 16.4661 5.50003 16.4661C4.97869 16.4661 4.19951 15.8724 3.29951 15.8724C2.19951 15.8724 1.12272 16.5636 0.554716 17.5703C-0.611951 19.5823 0.252237 22.5618 1.38024 24.2005C1.93357 25.0111 2.60003 25.8671 3.50003 25.8671C4.32536 25.8365 4.60299 25.3671 5.59899 25.3671C6.60165 25.3671 6.89951 25.8671 7.79951 25.8671C8.69951 25.8671 9.2449 25.0424 9.7969 24.2317C10.4276 23.3117 10.6845 22.4138 10.7005 22.3671C10.6859 22.3525 8.95613 21.6887 8.94013 19.6927C8.92547 18.0233 10.3019 17.2276 10.3646 17.1823C9.58728 16.0276 8.30003 15.8671 8.00003 15.8671H7.90107ZM27.3594 17.0677C25.3687 17.0677 23.8984 18.184 23.8438 19.7187H25.5313C25.6699 18.9894 26.362 18.5104 27.3073 18.5104C28.454 18.5104 29.1016 19.0346 29.1016 20V20.6666L26.7578 20.7916C24.5805 20.921 23.4037 21.7925 23.4037 23.3125C23.4037 24.8471 24.6193 25.8671 26.362 25.8671C27.5393 25.8671 28.633 25.2808 29.1276 24.3541H29.1667V25.776H30.9011V19.8802C30.8997 18.1682 29.5047 17.0677 27.3594 17.0677ZM31.599 17.0677L34.8073 25.8255L34.6354 26.3593C34.3461 27.262 33.8751 27.6093 33.0391 27.6093C32.8964 27.6093 32.6266 27.5954 32.5026 27.5807V29.0234C32.628 29.0514 33.0672 29.0677 33.2032 29.0677C35.0485 29.0677 35.9171 28.3723 36.6771 26.2656L40 17.0677H38.0755L35.8464 24.1744H35.8073L33.5782 17.0677H31.599ZM29.1016 21.8671L29.0938 22.5625C29.0938 23.6718 28.1339 24.4609 26.8646 24.4609C25.8659 24.4609 25.2292 23.9909 25.2292 23.2682C25.2292 22.5229 25.8424 22.0901 27.013 22.0208L29.1016 21.8671Z" fill="#637394"/>
</g>
<defs>
<clipPath id="clip0_1_7905">
<rect width="40" height="40" fill="white"/>
</clipPath>
</defs>
</svg>
