<svg width="40" height="40" viewBox="0 0 40 40" fill="none" xmlns="http://www.w3.org/2000/svg">
<path d="M33.48 6.22668H6.52002C4.38669 6.22668 2.66669 7.94668 2.66669 10.08V29.3333C2.66669 31.4667 4.38669 33.1867 6.52002 33.1867H33.48C35.6134 33.1867 37.3334 31.4667 37.3334 29.3333V10.08C37.3334 7.94668 35.6134 6.22668 33.48 6.22668ZM26 26.6667C23.52 26.6667 21.32 25.44 20 23.5467C18.68 25.44 16.48 26.6667 14 26.6667C9.94669 26.6667 6.66669 23.3867 6.66669 19.3333C6.66669 15.28 9.94669 12 14 12C16.48 12 18.68 13.2267 20 15.12C21.32 13.2267 23.52 12 26 12C30.0534 12 33.3334 15.28 33.3334 19.3333C33.3334 23.3867 30.0534 26.6667 26 26.6667Z" fill="#637394"/>
</svg>
