<svg width="40" height="40" viewBox="0 0 40 40" fill="none" xmlns="http://www.w3.org/2000/svg">
<path d="M34.6667 6.66663H5.33335C3.86002 6.66663 2.66669 7.85996 2.66669 9.33329V30.6666C2.66669 32.14 3.86002 33.3333 5.33335 33.3333H34.6667C36.14 33.3333 37.3334 32.14 37.3334 30.6666V9.33329C37.3334 7.85996 36.14 6.66663 34.6667 6.66663ZM15.16 24H12.76V19.28H12.52L11.16 24H9.48002L8.12002 19.28H7.96002V24H5.56002V16H7.96002C8.60002 16 9.08002 16.4 9.24002 17.04L10.28 20.72H10.44L11.48 17.04C11.64 16.4 12.12 16 12.76 16H15.16V24ZM24.76 24H22.36V19.2H22.12L20.2 23.12C20.04 23.68 19.48 24 18.92 24H16.76V16H19.16V20.8H19.32L21.24 16.88C21.48 16.32 22.04 16 22.6 16H24.76V24ZM31.56 21.6H28.76V24H26.36V20H34.04C33.64 20.96 32.68 21.6 31.56 21.6ZM34.36 19.2H29.72C27.64 19.2 25.96 17.84 25.56 16H31.48C33.08 16 34.36 17.2 34.44 18.64C34.44 18.88 34.36 19.04 34.36 19.2Z" fill="#637394"/>
</svg>
