<svg width="40" height="40" viewBox="0 0 40 40" fill="none" xmlns="http://www.w3.org/2000/svg">
<path d="M5.33335 6.66663C3.86002 6.66663 2.66669 7.85996 2.66669 9.33329V14.7317H6.69533C7.79533 14.7317 8.21617 15.763 8.21617 15.763L9.15106 20.513C8.04439 16.9476 3.77869 15.2189 2.66669 14.8229V30.6666C2.66669 32.14 3.86002 33.3333 5.33335 33.3333H34.6667C36.14 33.3333 37.3334 32.14 37.3334 30.6666V9.33329C37.3334 7.85996 36.14 6.66663 34.6667 6.66663H5.33335ZM24.4922 14.4948C25.7802 14.4948 27.0964 15.0104 27.0964 15.0104L26.6459 17.3229C26.6459 17.3229 25.6188 16.6484 24.7188 16.6484C23.3374 16.6484 22.8542 17.099 22.8542 17.7057C22.8542 18.8937 26.711 19.086 26.711 21.75C26.7096 23.9633 23.9451 25.5052 21.9557 25.5052C19.9637 25.5052 18.9349 24.8984 18.9349 24.8984L19.4167 22.6796C19.4167 22.6796 20.478 23.289 22.086 23.289C23.6913 23.289 23.9141 22.6148 23.9141 22.3255C23.9141 20.6255 20.0625 21.0788 20.0625 17.7708C20.0625 15.9415 21.5709 14.4948 24.4922 14.4948ZM12.0287 14.7057H15.0026L10.7735 25.177H7.71096L5.48179 16.6979C5.48179 16.6979 7.83067 17.8874 9.27867 21.1328C9.34133 21.5274 9.487 22.1614 9.487 22.1614L12.0287 14.7057ZM16.099 14.7057H18.9115L17.2318 25.177H14.4531L16.099 14.7057ZM31.1979 14.7057H34.1198L36.2709 25.177H33.7422L33.4427 23.6849H29.9662L29.3959 25.177H26.6354L31.1979 14.7057ZM32.2474 17.7265L30.737 21.6823H33.0391L32.2474 17.7265Z" fill="#637394"/>
</svg>
