<svg width="24" height="24" viewBox="0 0 24 24" fill="none" xmlns="http://www.w3.org/2000/svg">
<path d="M20.9998 7V6.25C20.9998 4.458 19.5418 3 17.7498 3H6.24982C4.45782 3 2.99982 4.458 2.99982 6.25V7H20.9998ZM2.99982 8.5V17.75C2.99982 19.542 4.45782 21 6.24982 21H17.7498C19.5418 21 20.9998 19.542 20.9998 17.75V8.5H2.99982ZM7.74982 18C7.05932 18 6.49982 17.4405 6.49982 16.75C6.49982 16.0595 7.05932 15.5 7.74982 15.5C8.44032 15.5 8.99982 16.0595 8.99982 16.75C8.99982 17.4405 8.44032 18 7.74982 18ZM7.74982 13.5C7.05932 13.5 6.49982 12.9405 6.49982 12.25C6.49982 11.5595 7.05932 11 7.74982 11C8.44032 11 8.99982 11.5595 8.99982 12.25C8.99982 12.9405 8.44032 13.5 7.74982 13.5ZM11.9998 18C11.3093 18 10.7498 17.4405 10.7498 16.75C10.7498 16.0595 11.3093 15.5 11.9998 15.5C12.6903 15.5 13.2498 16.0595 13.2498 16.75C13.2498 17.4405 12.6903 18 11.9998 18ZM11.9998 13.5C11.3093 13.5 10.7498 12.9405 10.7498 12.25C10.7498 11.5595 11.3093 11 11.9998 11C12.6903 11 13.2498 11.5595 13.2498 12.25C13.2498 12.9405 12.6903 13.5 11.9998 13.5ZM16.2498 13.5C15.5593 13.5 14.9998 12.9405 14.9998 12.25C14.9998 11.5595 15.5593 11 16.2498 11C16.9403 11 17.4998 11.5595 17.4998 12.25C17.4998 12.9405 16.9403 13.5 16.2498 13.5Z" fill="#637394"/>
</svg>
