<svg width="24" height="24" viewBox="0 0 24 24" fill="none" xmlns="http://www.w3.org/2000/svg">
<path d="M17.4911 5.48533C17.2268 5.49156 16.9758 5.60216 16.7928 5.79294L11.9998 10.5859L7.20687 5.79294C7.11357 5.69703 7.00197 5.62082 6.87867 5.56882C6.75538 5.51682 6.62291 5.49009 6.4891 5.49021C6.29025 5.49045 6.09599 5.54997 5.93113 5.66116C5.76627 5.77235 5.6383 5.93016 5.56356 6.11443C5.48883 6.2987 5.47072 6.50107 5.51155 6.69568C5.55239 6.89029 5.65031 7.06832 5.79281 7.20701L10.5858 12L5.79281 16.7929C5.69684 16.8851 5.62021 16.9955 5.56743 17.1176C5.51464 17.2397 5.48676 17.3712 5.4854 17.5042C5.48405 17.6372 5.50926 17.7692 5.55954 17.8924C5.60983 18.0156 5.6842 18.1275 5.77827 18.2215C5.87235 18.3156 5.98426 18.39 6.10744 18.4403C6.23061 18.4906 6.36259 18.5158 6.49563 18.5144C6.62867 18.5131 6.7601 18.4852 6.88223 18.4324C7.00436 18.3796 7.11473 18.303 7.20687 18.207L11.9998 13.414L16.7928 18.207C16.885 18.303 16.9953 18.3796 17.1175 18.4324C17.2396 18.4852 17.371 18.5131 17.5041 18.5144C17.6371 18.5158 17.7691 18.4906 17.8923 18.4403C18.0154 18.39 18.1273 18.3156 18.2214 18.2215C18.3155 18.1275 18.3899 18.0156 18.4401 17.8924C18.4904 17.7692 18.5156 17.6372 18.5143 17.5042C18.5129 17.3712 18.485 17.2397 18.4323 17.1176C18.3795 16.9955 18.3028 16.8851 18.2069 16.7929L13.4139 12L18.2069 7.20701C18.3524 7.06747 18.4523 6.88722 18.4936 6.68989C18.5349 6.49255 18.5155 6.28735 18.4382 6.1012C18.3608 5.91505 18.2289 5.75663 18.0599 5.64672C17.8909 5.53682 17.6926 5.48056 17.4911 5.48533Z" fill="#637394"/>
</svg>
