<svg width="24" height="24" viewBox="0 0 24 24" fill="none" xmlns="http://www.w3.org/2000/svg">
<path d="M3.17632 20.4965C3.20082 20.499 3.22582 20.5 3.25032 20.5C3.60432 20.5 3.91432 20.2505 3.98532 19.897C5.03432 14.649 10.5038 14.2755 12.9998 14.3915V18.25C12.9998 18.553 13.1823 18.8265 13.4628 18.943C13.7428 19.0585 14.0653 18.995 14.2803 18.7805L21.2803 11.7805C21.5733 11.488 21.5733 11.0125 21.2803 10.72L14.2803 3.72C14.0658 3.5055 13.7433 3.441 13.4628 3.5575C13.1823 3.673 12.9998 3.9465 12.9998 4.25V8.0975C10.1833 8.4655 2.49982 10.3335 2.49982 19.75C2.49982 20.1355 2.79232 20.4585 3.17632 20.4965Z" fill="#637394"/>
</svg>
