<svg width="24" height="24" viewBox="0 0 24 24" fill="none" xmlns="http://www.w3.org/2000/svg">
<path d="M11.9998 1.99902C6.48582 1.99902 1.99982 6.48502 1.99982 11.999C1.99982 13.5925 2.38553 15.1715 3.11603 16.585L2.04572 20.4141C1.92522 20.8481 2.048 21.3153 2.367 21.6338C2.6045 21.8713 2.92477 22 3.25177 22C3.36427 22 3.47573 21.9851 3.58673 21.9541L7.41779 20.8848C8.83129 21.6148 10.4083 21.999 11.9998 21.999C17.5138 21.999 21.9998 17.513 21.9998 11.999C21.9998 6.48502 17.5138 1.99902 11.9998 1.99902ZM10.2498 6.5H13.2498C13.6638 6.5 13.9998 6.8355 13.9998 7.25V8.5C13.9998 9.548 13.5359 10.5317 12.7274 11.1992C12.5879 11.3147 12.4188 11.3711 12.2508 11.3711C12.0343 11.3711 11.8197 11.2781 11.6717 11.0986C11.4077 10.7791 11.4528 10.307 11.7723 10.043C12.2348 9.66147 12.4998 9.099 12.4998 8.5V8H10.2498C9.83582 8 9.49982 7.6645 9.49982 7.25C9.49982 6.8355 9.83582 6.5 10.2498 6.5ZM15.7498 6.5C16.1638 6.5 16.4998 6.8355 16.4998 7.25V9H17.2498C17.6638 9 17.9998 9.3355 17.9998 9.75C17.9998 10.1645 17.6638 10.5 17.2498 10.5H16.4998V13.75C16.4998 14.1645 16.1638 14.5 15.7498 14.5C15.3358 14.5 14.9998 14.1645 14.9998 13.75V7.25C14.9998 6.8355 15.3358 6.5 15.7498 6.5ZM9.24982 9C9.56032 9 9.83851 9.19097 9.95001 9.48047L12.45 15.9805C12.5985 16.3675 12.4054 16.8017 12.0184 16.9502C11.9299 16.9842 11.8398 17 11.7498 17C11.4483 17 11.1641 16.8166 11.0496 16.5186L10.4656 15H8.034L7.45001 16.5195C7.30101 16.9065 6.86576 17.0992 6.48126 16.9502C6.09476 16.8017 5.90112 16.3679 6.04962 15.9814L8.54962 9.48145C8.66112 9.19145 8.93932 9 9.24982 9ZM9.24982 11.8398L8.61115 13.5H9.88849L9.24982 11.8398Z" fill="#637394"/>
</svg>
