<svg width="24" height="24" viewBox="0 0 24 24" fill="none" xmlns="http://www.w3.org/2000/svg">
<path d="M11.9998 2C7.31282 2 3.49982 5.813 3.49982 10.5C3.49982 12.518 4.22432 14.4765 5.54632 16.024C5.69732 16.1955 9.25982 20.2435 10.4498 21.378C10.8843 21.7925 11.4418 22 11.9998 22C12.5578 22 13.1153 21.7925 13.5503 21.378C14.9338 20.0585 18.3123 16.1855 18.4603 16.0155C19.7753 14.4765 20.4998 12.518 20.4998 10.5C20.4998 5.813 16.6868 2 11.9998 2ZM11.9998 13C10.6193 13 9.49982 11.8805 9.49982 10.5C9.49982 9.1195 10.6193 8 11.9998 8C13.3803 8 14.4998 9.1195 14.4998 10.5C14.4998 11.8805 13.3803 13 11.9998 13Z" fill="#637394"/>
</svg>
