<svg width="24" height="24" viewBox="0 0 24 24" fill="none" xmlns="http://www.w3.org/2000/svg">
<path d="M10.2498 3C6.25759 3 2.99982 6.25778 2.99982 10.25C2.99982 14.2422 6.25759 17.5 10.2498 17.5C11.8864 17.5 13.3943 16.9465 14.6102 16.0254L19.2928 20.707C19.3849 20.803 19.4953 20.8796 19.6174 20.9324C19.7396 20.9852 19.871 21.0131 20.004 21.0144C20.1371 21.0158 20.269 20.9906 20.3922 20.9403C20.5154 20.89 20.6273 20.8157 20.7214 20.7216C20.8155 20.6275 20.8898 20.5156 20.9401 20.3924C20.9904 20.2692 21.0156 20.1373 21.0143 20.0042C21.0129 19.8712 20.985 19.7397 20.9322 19.6176C20.8794 19.4955 20.8028 19.3851 20.7068 19.293L16.0252 14.6104C16.9463 13.3945 17.4998 11.8866 17.4998 10.25C17.4998 6.25778 14.242 3 10.2498 3ZM10.2498 5C13.1612 5 15.4998 7.33866 15.4998 10.25C15.4998 11.6479 14.9568 12.9103 14.074 13.8486C13.9881 13.9108 13.9126 13.9863 13.8504 14.0723C12.9119 14.9562 11.6487 15.5 10.2498 15.5C7.33847 15.5 4.99982 13.1613 4.99982 10.25C4.99982 7.33866 7.33847 5 10.2498 5Z" fill="#637394"/>
</svg>
