<svg width="24" height="24" viewBox="0 0 24 24" fill="none" xmlns="http://www.w3.org/2000/svg">
<path d="M12.5183 4.208C12.2288 3.9305 11.7713 3.9305 11.4818 4.208L5.73182 9.708C5.51032 9.92 5.44032 10.245 5.55432 10.5295C5.66832 10.814 5.94332 11 6.24982 11H17.7498C18.0558 11 18.3318 10.8135 18.4463 10.5295C18.5603 10.2455 18.4898 9.92 18.2688 9.708L12.5183 4.208ZM17.7498 13H6.24982C5.94332 13 5.66782 13.1865 5.55382 13.4705C5.43982 13.7545 5.51032 14.08 5.73132 14.292L11.4813 19.792C11.6263 19.9305 11.8128 20 11.9998 20C12.1868 20 12.3733 19.9305 12.5183 19.792L18.2683 14.292C18.4893 14.08 18.5598 13.755 18.4458 13.4705C18.3318 13.1865 18.0558 13 17.7498 13Z" fill="#637394"/>
</svg>
