<svg width="24" height="24" viewBox="0 0 24 24" fill="none" xmlns="http://www.w3.org/2000/svg">
<path d="M11.9998 2C6.48582 2 1.99982 6.486 1.99982 12C1.99982 17.514 6.48582 22 11.9998 22C17.5138 22 21.9998 17.514 21.9998 12C21.9998 6.486 17.5138 2 11.9998 2ZM16.2498 12.75H12.7498V16.25C12.7498 16.6645 12.4138 17 11.9998 17C11.5858 17 11.2498 16.6645 11.2498 16.25V12.75H7.74982C7.33582 12.75 6.99982 12.4145 6.99982 12C6.99982 11.5855 7.33582 11.25 7.74982 11.25H11.2498V7.75C11.2498 7.3355 11.5858 7 11.9998 7C12.4138 7 12.7498 7.3355 12.7498 7.75V11.25H16.2498C16.6638 11.25 16.9998 11.5855 16.9998 12C16.9998 12.4145 16.6638 12.75 16.2498 12.75Z" fill="#637394"/>
</svg>
