<svg width="24" height="24" viewBox="0 0 24 24" fill="none" xmlns="http://www.w3.org/2000/svg">
<path d="M15.9803 3.49024C15.7205 3.49798 15.4739 3.60656 15.2928 3.79298L7.79278 11.293C7.60531 11.4805 7.5 11.7348 7.5 12C7.5 12.2652 7.60531 12.5195 7.79278 12.707L15.2928 20.207C15.3849 20.303 15.4953 20.3796 15.6174 20.4324C15.7395 20.4852 15.871 20.5131 16.004 20.5145C16.1371 20.5158 16.269 20.4906 16.3922 20.4403C16.5154 20.39 16.6273 20.3157 16.7214 20.2216C16.8155 20.1275 16.8898 20.0156 16.9401 19.8924C16.9904 19.7692 17.0156 19.6373 17.0143 19.5042C17.0129 19.3712 16.985 19.2397 16.9322 19.1176C16.8794 18.9955 16.8028 18.8851 16.7068 18.793L9.91387 12L16.7068 5.20704C16.8513 5.06658 16.95 4.88574 16.99 4.68822C17.03 4.4907 17.0093 4.28571 16.9308 4.10013C16.8522 3.91454 16.7195 3.75701 16.5499 3.64818C16.3802 3.53935 16.1817 3.4843 15.9803 3.49024Z" fill="#637394"/>
</svg>
