<svg width="24" height="24" viewBox="0 0 24 24" fill="none" xmlns="http://www.w3.org/2000/svg">
<path d="M11.9991 2C11.288 2 10.7134 2.55859 10.7134 3.25V4C7.78042 4.57813 5.57063 7.10156 5.57063 10.125V10.8594C5.57063 12.6953 4.87555 14.4687 3.62199 15.8437L3.32467 16.168C2.98718 16.5352 2.90682 17.0625 3.11173 17.5117C3.31664 17.9609 3.77868 18.25 4.28493 18.25H19.7133C20.2195 18.25 20.6776 17.9609 20.8865 17.5117C21.0954 17.0625 21.011 16.5352 20.6736 16.168L20.3762 15.8437C19.1227 14.4687 18.4276 12.6992 18.4276 10.8594V10.125C18.4276 7.10156 16.2178 4.57813 13.2848 4V3.25C13.2848 2.55859 12.7103 2 11.9991 2ZM13.8192 21.2695C14.3013 20.8008 14.5705 20.1641 14.5705 19.5H11.9991H9.42772C9.42772 20.1641 9.69691 20.8008 10.179 21.2695C10.6612 21.7383 11.3161 22 11.9991 22C12.6821 22 13.337 21.7383 13.8192 21.2695Z" fill="#637394"/>
</svg>
