<svg width="24" height="24" viewBox="0 0 24 24" fill="none" xmlns="http://www.w3.org/2000/svg">
<path d="M6.99989 9H16.9999C17.2651 9 17.5195 9.10536 17.707 9.29289C17.8945 9.48043 17.9999 9.73478 17.9999 10C17.9999 10.2652 17.8945 10.5196 17.707 10.7071C17.5195 10.8946 17.2651 11 16.9999 11H6.99989C6.73467 11 6.48032 10.8946 6.29278 10.7071C6.10525 10.5196 5.99989 10.2652 5.99989 10C5.99989 9.73478 6.10525 9.48043 6.29278 9.29289C6.48032 9.10536 6.73467 9 6.99989 9ZM10.9999 13H16.9999C17.2651 13 17.5195 13.1054 17.707 13.2929C17.8945 13.4804 17.9999 13.7348 17.9999 14C17.9999 14.2652 17.8945 14.5196 17.707 14.7071C17.5195 14.8946 17.2651 15 16.9999 15H10.9999C10.7347 15 10.4803 14.8946 10.2928 14.7071C10.1052 14.5196 9.99989 14.2652 9.99989 14C9.99989 13.7348 10.1052 13.4804 10.2928 13.2929C10.4803 13.1054 10.7347 13 10.9999 13ZM11.9999 2C13.3131 2 14.6135 2.25866 15.8267 2.7612C17.04 3.26375 18.1424 4.00035 19.071 4.92893C20.9463 6.8043 21.9999 9.34784 21.9999 12C22.0086 14.3091 21.2091 16.5485 19.7399 18.33L21.7399 20.33C21.8786 20.4706 21.9726 20.6492 22.01 20.8432C22.0474 21.0372 22.0265 21.2379 21.9499 21.42C21.8668 21.5999 21.7322 21.7511 21.563 21.8544C21.3939 21.9577 21.1979 22.0083 20.9999 22H11.9999C9.34772 22 6.80419 20.9464 4.92882 19.0711C3.05346 17.1957 1.99989 14.6522 1.99989 12C1.99989 9.34784 3.05346 6.8043 4.92882 4.92893C6.80419 3.05357 9.34772 2 11.9999 2V2ZM11.9999 20H18.5899L17.6599 19.07C17.4736 18.8826 17.3691 18.6292 17.3691 18.365C17.3691 18.1008 17.4736 17.8474 17.6599 17.66C18.9693 16.352 19.7847 14.6305 19.9672 12.7888C20.1497 10.947 19.6879 9.09901 18.6607 7.55952C17.6334 6.02004 16.1041 4.88436 14.3334 4.34597C12.5627 3.80759 10.66 3.8998 8.94967 4.60691C7.23932 5.31402 5.82704 6.59227 4.95345 8.22389C4.07987 9.85551 3.79902 11.7395 4.15876 13.555C4.51851 15.3705 5.49658 17.005 6.92635 18.1802C8.35612 19.3554 10.1491 19.9985 11.9999 20V20Z" fill="#637394"/>
</svg>
