<svg width="24" height="24" viewBox="0 0 24 24" fill="none" xmlns="http://www.w3.org/2000/svg">
<path d="M11.9998 2C6.49982 2 1.99982 6.5 1.99982 12C1.99982 17.5 6.49982 22 11.9998 22C17.4998 22 21.9998 17.5 21.9998 12C21.9998 6.5 17.4998 2 11.9998 2ZM15.7498 13.5H11.7498C11.3498 13.5 10.9998 13.15 10.9998 12.75V6.75C10.9998 6.35 11.3498 6 11.7498 6C12.1498 6 12.4998 6.35 12.4998 6.75V12H15.7498C16.1498 12 16.4998 12.35 16.4998 12.75C16.4998 13.15 16.1498 13.5 15.7498 13.5Z" fill="#637394"/>
</svg>
