<svg width="24" height="24" viewBox="0 0 24 24" fill="none" xmlns="http://www.w3.org/2000/svg">
<path d="M20.9803 1.99024C20.7205 1.99798 20.4739 2.10656 20.2928 2.29298L13.9998 8.58595V4.00001C14.0017 3.8663 13.9767 3.73359 13.9263 3.60971C13.876 3.48584 13.8013 3.37332 13.7067 3.27881C13.6121 3.1843 13.4995 3.10973 13.3756 3.05949C13.2516 3.00925 13.1189 2.98438 12.9852 2.98634C12.7201 2.99022 12.4675 3.09917 12.2827 3.28924C12.098 3.47931 11.9962 3.73496 11.9998 4.00001V11C11.9999 11.2652 12.1052 11.5196 12.2928 11.7071C12.4803 11.8946 12.7346 12 12.9998 12H19.9998C20.1324 12.0019 20.2639 11.9774 20.3869 11.928C20.5099 11.8786 20.6218 11.8052 20.7161 11.7122C20.8105 11.6191 20.8855 11.5083 20.9366 11.386C20.9877 11.2637 21.0141 11.1325 21.0141 11C21.0141 10.8675 20.9877 10.7363 20.9366 10.614C20.8855 10.4918 20.8105 10.3809 20.7161 10.2878C20.6218 10.1948 20.5099 10.1214 20.3869 10.072C20.2639 10.0226 20.1324 9.99813 19.9998 10H15.4139L21.7069 3.70704C21.8514 3.56658 21.9501 3.38574 21.99 3.18822C22.03 2.9907 22.0094 2.78571 21.9308 2.60013C21.8523 2.41454 21.7195 2.25701 21.5499 2.14818C21.3803 2.03935 21.1817 1.9843 20.9803 1.99024ZM3.49984 12.5C3.36733 12.4981 3.23576 12.5226 3.1128 12.572C2.98983 12.6214 2.87791 12.6948 2.78354 12.7878C2.68917 12.8809 2.61423 12.9918 2.56308 13.114C2.51194 13.2363 2.4856 13.3675 2.4856 13.5C2.4856 13.6325 2.51194 13.7637 2.56308 13.886C2.61423 14.0083 2.68917 14.1191 2.78354 14.2122C2.87791 14.3052 2.98983 14.3786 3.1128 14.428C3.23576 14.4774 3.36733 14.5019 3.49984 14.5H8.08578L2.29281 20.293C2.19683 20.3851 2.12021 20.4955 2.06743 20.6176C2.01464 20.7397 1.98676 20.8712 1.9854 21.0042C1.98405 21.1373 2.00926 21.2692 2.05955 21.3924C2.10983 21.5156 2.1842 21.6275 2.27827 21.7216C2.37235 21.8157 2.48426 21.89 2.60743 21.9403C2.73061 21.9906 2.86259 22.0158 2.99563 22.0144C3.12867 22.0131 3.2601 21.9852 3.38223 21.9324C3.50436 21.8796 3.61473 21.803 3.70687 21.707L9.49984 15.9141V20.5C9.49797 20.6325 9.52245 20.7641 9.57186 20.8871C9.62127 21.01 9.69464 21.1219 9.78768 21.2163C9.88072 21.3107 9.9916 21.3856 10.1139 21.4368C10.2361 21.4879 10.3673 21.5142 10.4998 21.5142C10.6324 21.5142 10.7636 21.4879 10.8858 21.4368C11.0081 21.3856 11.119 21.3107 11.212 21.2163C11.305 21.1219 11.3784 21.01 11.4278 20.8871C11.4772 20.7641 11.5017 20.6325 11.4998 20.5V13.5C11.4998 13.2348 11.3944 12.9805 11.2069 12.7929C11.0194 12.6054 10.765 12.5 10.4998 12.5H3.49984Z" fill="#637394"/>
</svg>
