<svg width="24" height="24" viewBox="0 0 24 24" fill="none" xmlns="http://www.w3.org/2000/svg">
<path d="M17.995 6.00043C17.7352 6.00818 17.4886 6.11676 17.3075 6.30317L9.01449 14.5961L5.72152 11.3032C5.62937 11.2072 5.519 11.1306 5.39688 11.0778C5.27475 11.025 5.14331 10.9971 5.01027 10.9958C4.87723 10.9944 4.74526 11.0196 4.62208 11.0699C4.49891 11.1202 4.387 11.1946 4.29292 11.2886C4.19884 11.3827 4.12448 11.4946 4.07419 11.6178C4.0239 11.741 3.9987 11.8729 4.00005 12.006C4.00141 12.139 4.02929 12.2705 4.08208 12.3926C4.13486 12.5147 4.21148 12.6251 4.30746 12.7172L8.30746 16.7172C8.495 16.9047 8.74931 17.01 9.01449 17.01C9.27966 17.01 9.53397 16.9047 9.72152 16.7172L18.7215 7.71723C18.866 7.57677 18.9647 7.39593 19.0047 7.19841C19.0446 7.00089 19.024 6.7959 18.9454 6.61032C18.8669 6.42473 18.7341 6.2672 18.5645 6.15838C18.3949 6.04955 18.1964 5.99449 17.995 6.00043Z" fill="#637394"/>
</svg>
