<svg width="24" height="24" viewBox="0 0 24 24" fill="none" xmlns="http://www.w3.org/2000/svg">
<path d="M3.54532 19.7825C3.55532 19.816 3.56282 19.85 3.57632 19.8825C3.59032 19.917 3.60982 19.948 3.62782 19.9805C3.64132 20.005 3.65232 20.031 3.66832 20.0545C3.74182 20.1645 3.83582 20.2585 3.94582 20.332C3.96982 20.348 3.99532 20.3585 4.01982 20.3725C4.05232 20.3905 4.08332 20.41 4.11782 20.424C4.15032 20.4375 4.18432 20.445 4.21782 20.455C4.24682 20.4635 4.27432 20.4745 4.30432 20.4805C4.36882 20.493 4.43432 20.5 4.49982 20.5H11.4998C12.0518 20.5 12.4998 20.052 12.4998 19.5C12.4998 18.948 12.0518 18.5 11.4998 18.5H6.91382L18.4998 6.914V11.5C18.4998 12.052 18.9478 12.5 19.4998 12.5C20.0518 12.5 20.4998 12.052 20.4998 11.5V4.5C20.4998 4.4345 20.4928 4.369 20.4803 4.304C20.4743 4.274 20.4633 4.2465 20.4548 4.2175C20.4448 4.184 20.4373 4.15 20.4238 4.1175C20.4098 4.083 20.3903 4.052 20.3723 4.0195C20.3588 3.995 20.3478 3.969 20.3318 3.9455C20.2583 3.8355 20.1643 3.7415 20.0543 3.668C20.0308 3.652 20.0048 3.6415 19.9803 3.6275C19.9478 3.6095 19.9168 3.59 19.8823 3.576C19.8498 3.5625 19.8158 3.555 19.7823 3.545C19.7533 3.5365 19.7258 3.5255 19.6958 3.5195C19.6308 3.507 19.5653 3.5 19.4998 3.5H12.4998C11.9478 3.5 11.4998 3.948 11.4998 4.5C11.4998 5.052 11.9478 5.5 12.4998 5.5H17.0858L5.49982 17.086V12.5C5.49982 11.948 5.05182 11.5 4.49982 11.5C3.94782 11.5 3.49982 11.948 3.49982 12.5V19.5C3.49982 19.5655 3.50682 19.631 3.51932 19.696C3.52532 19.726 3.53682 19.7535 3.54532 19.7825Z" fill="#637394"/>
</svg>
