<svg width="24" height="24" viewBox="0 0 24 24" fill="none" xmlns="http://www.w3.org/2000/svg">
<path fill-rule="evenodd" clip-rule="evenodd" d="M3.9364 2.66363C3.58492 2.31216 3.01508 2.31216 2.6636 2.66363C2.31213 3.0151 2.31213 3.58495 2.6636 3.93642L20.0636 21.3364C20.4151 21.6879 20.9849 21.6879 21.3364 21.3364C21.6879 20.9849 21.6879 20.4151 21.3364 20.0636L19.2422 17.9694C21.0077 16.6313 22.3914 14.8158 23.2012 12.7151C23.3777 12.2573 23.3779 11.7495 23.2016 11.2916C21.4704 6.79263 17.1072 3.60002 11.9983 3.60002C9.93849 3.60002 7.99988 4.11901 6.30612 5.03335L3.9364 2.66363ZM9.30232 8.02955L10.6124 9.33964C11.0274 9.1227 11.4995 9.00002 12.0002 9.00002C13.6571 9.00002 15.0002 10.3432 15.0002 12C15.0002 12.5008 14.8775 12.9728 14.6606 13.3878L15.9709 14.6981C16.4944 13.9292 16.8004 13.0004 16.8004 12C16.8004 9.34906 14.6514 7.20002 12.0004 7.20002C11.0001 7.20002 10.0712 7.50604 9.30232 8.02955Z" fill="#637394"/>
<path d="M12.8981 16.7162L15.9253 19.7435C14.6955 20.1689 13.375 20.4 12.0004 20.4C6.89157 20.4 2.52837 17.2074 0.797106 12.7085C0.62087 12.2505 0.621022 11.7428 0.797532 11.2849C1.38724 9.7552 2.2813 8.37671 3.40549 7.22365L7.28423 11.1024C7.22923 11.3932 7.20045 11.6932 7.20045 12C7.20045 14.651 9.34948 16.8 12.0004 16.8C12.3072 16.8 12.6073 16.7712 12.8981 16.7162Z" fill="#637394"/>
</svg>
