<svg width="24" height="24" viewBox="0 0 24 24" fill="none" xmlns="http://www.w3.org/2000/svg">
<g clip-path="url(#clip0_572_2084)">
<path d="M12 0C12.8297 0 13.5 0.670312 13.5 1.5V3.12656C17.2688 3.75469 20.2453 6.73125 20.8734 10.5H22.5C23.3297 10.5 24 11.1703 24 12C24 12.8297 23.3297 13.5 22.5 13.5H20.8734C20.2453 17.2688 17.2688 20.2453 13.5 20.8734V22.5C13.5 23.3297 12.8297 24 12 24C11.1703 24 10.5 23.3297 10.5 22.5V20.8734C6.73125 20.2453 3.75469 17.2688 3.12656 13.5H1.5C0.670312 13.5 0 12.8297 0 12C0 11.1703 0.670312 10.5 1.5 10.5H3.12656C3.75469 6.73125 6.73125 3.75469 10.5 3.12656V1.5C10.5 0.670312 11.1703 0 12 0ZM6 12C6 13.5913 6.63214 15.1174 7.75736 16.2426C8.88258 17.3679 10.4087 18 12 18C13.5913 18 15.1174 17.3679 16.2426 16.2426C17.3679 15.1174 18 13.5913 18 12C18 10.4087 17.3679 8.88258 16.2426 7.75736C15.1174 6.63214 13.5913 6 12 6C10.4087 6 8.88258 6.63214 7.75736 7.75736C6.63214 8.88258 6 10.4087 6 12ZM12 8.25C12.9946 8.25 13.9484 8.64509 14.6517 9.34835C15.3549 10.0516 15.75 11.0054 15.75 12C15.75 12.9946 15.3549 13.9484 14.6517 14.6517C13.9484 15.3549 12.9946 15.75 12 15.75C11.0054 15.75 10.0516 15.3549 9.34835 14.6517C8.64509 13.9484 8.25 12.9946 8.25 12C8.25 11.0054 8.64509 10.0516 9.34835 9.34835C10.0516 8.64509 11.0054 8.25 12 8.25Z" fill="#637394"/>
</g>
<defs>
<clipPath id="clip0_572_2084">
<rect width="24" height="24" fill="white"/>
</clipPath>
</defs>
</svg>
