<svg width="226" height="226" viewBox="0 0 226 226" fill="none" xmlns="http://www.w3.org/2000/svg">
<circle cx="113" cy="113" r="113" fill="white"/>
<g filter="url(#filter0_d_1_5533)">
<path d="M63.0676 114.609C62.7343 112.442 63.4676 107.509 69.0676 105.109C74.6676 102.709 79.7343 106.442 81.5676 108.609C80.0901 105.145 78.7217 97.1961 85.0676 93.1089C90.0676 90.6088 95.0676 91.6087 97.0676 96.1089C99.9386 96.0738 105.671 97.0278 106.436 101.041C105.936 96.9544 106.804 89.118 114.068 87.1089C114.401 85.1089 116.268 81.3089 121.068 82.1089C127.068 83.1089 129.568 88.1089 129.568 88.1089C130.878 86.0726 134.5 82.3999 138.5 83.9999C143.5 85.9999 150.135 89.2179 151.068 100.109C155.423 100.312 164.022 103.496 163.568 114.609H63.0676Z" fill="#FF8036"/>
</g>
<path fill-rule="evenodd" clip-rule="evenodd" d="M168.42 114C171.111 114 173.034 116.603 172.243 119.175L151.035 188.175C150.519 189.854 148.968 191 147.212 191H78.6222C76.8658 191 75.3148 189.854 74.7988 188.175L53.5907 119.175C52.8001 116.603 54.7234 114 57.4141 114H168.42Z" fill="#1A2232"/>
<path fill-rule="evenodd" clip-rule="evenodd" d="M39.9727 94.9426C38.331 96.4208 38.1984 98.95 39.6766 100.592L49.7136 111.739C51.1918 113.381 53.721 113.513 55.3627 112.035L60.0001 107.859V76.9098L39.9727 94.9426ZM70.0001 67.9058V98.8553L84.0001 86.2497V55.3001L70.0001 67.9058ZM94.0001 46.2961V77.2456L108 64.64V33.6904L94.0001 46.2961ZM135.622 39.7688L118 55.6359V24.6864L120.232 22.6765C121.874 21.1983 124.403 21.3308 125.881 22.9726L135.918 34.1197C137.397 35.7614 137.264 38.2906 135.622 39.7688Z" fill="#1A2232"/>
<g filter="url(#filter1_d_1_5533)">
<path d="M127.704 138C127.871 138.767 127.888 139.55 127.754 140.35C127.654 141.117 127.504 141.817 127.304 142.45C126.904 143.75 126.438 145.2 125.904 146.8C125.371 148.4 124.838 150 124.304 151.6C123.771 153.2 123.254 154.717 122.754 156.15C122.254 157.55 121.838 158.717 121.504 159.65C121.171 160.517 120.821 161.5 120.454 162.6C120.088 163.7 119.638 164.783 119.104 165.85C118.604 166.883 118.004 167.833 117.304 168.7C116.638 169.567 115.821 170.2 114.854 170.6C113.888 171 113.004 171.1 112.204 170.9C111.404 170.667 110.688 170.267 110.054 169.7C109.421 169.1 108.838 168.367 108.304 167.5C107.804 166.6 107.354 165.683 106.954 164.75C106.554 163.817 106.188 162.917 105.854 162.05C105.521 161.15 105.221 160.383 104.954 159.75C103.921 157.483 102.988 155.083 102.154 152.55C101.321 150.017 100.471 147.6 99.6045 145.3C99.3711 144.633 99.1045 143.833 98.8045 142.9C98.5045 141.933 98.3045 140.983 98.2045 140.05C98.1378 139.083 98.2545 138.217 98.5545 137.45C98.8545 136.65 99.4878 136.1 100.454 135.8C100.654 135.733 100.854 135.683 101.054 135.65C101.288 135.583 101.504 135.533 101.704 135.5C101.938 135.5 102.154 135.517 102.354 135.55C102.554 135.583 102.771 135.667 103.004 135.8C103.171 135.867 103.338 135.95 103.504 136.05C103.671 136.117 103.821 136.217 103.954 136.35C104.088 136.517 104.204 136.683 104.304 136.85C104.438 137.017 104.571 137.183 104.704 137.35C104.804 137.583 104.888 137.8 104.954 138C105.054 138.167 105.138 138.333 105.204 138.5C105.271 138.733 105.354 138.95 105.454 139.15C105.554 139.317 105.638 139.483 105.704 139.65L106.004 140.5L113.204 161.05L120.304 140.55L120.654 139.7C120.721 139.533 120.788 139.367 120.854 139.2C120.921 139 120.988 138.783 121.054 138.55C121.121 138.383 121.188 138.217 121.254 138.05C121.354 137.85 121.471 137.65 121.604 137.45C121.704 137.283 121.804 137.117 121.904 136.95C122.038 136.75 122.171 136.567 122.304 136.4C122.404 136.267 122.521 136.15 122.654 136.05C122.821 135.95 122.971 135.867 123.104 135.8C123.371 135.667 123.604 135.583 123.804 135.55C124.038 135.517 124.238 135.5 124.404 135.5C124.604 135.533 124.804 135.583 125.004 135.65C125.238 135.683 125.454 135.733 125.654 135.8C126.288 135.967 126.754 136.25 127.054 136.65C127.388 137.05 127.604 137.5 127.704 138Z" fill="#D9D9D9"/>
</g>
<defs>
<filter id="filter0_d_1_5533" x="59" y="75.9999" width="108.585" height="40.6091" filterUnits="userSpaceOnUse" color-interpolation-filters="sRGB">
<feFlood flood-opacity="0" result="BackgroundImageFix"/>
<feColorMatrix in="SourceAlpha" type="matrix" values="0 0 0 0 0 0 0 0 0 0 0 0 0 0 0 0 0 0 127 0" result="hardAlpha"/>
<feOffset dy="-2"/>
<feGaussianBlur stdDeviation="2"/>
<feComposite in2="hardAlpha" operator="out"/>
<feColorMatrix type="matrix" values="0 0 0 0 1 0 0 0 0 0.50125 0 0 0 0 0.2125 0 0 0 0.56 0"/>
<feBlend mode="normal" in2="BackgroundImageFix" result="effect1_dropShadow_1_5533"/>
<feBlend mode="normal" in="SourceGraphic" in2="effect1_dropShadow_1_5533" result="shape"/>
</filter>
<filter id="filter1_d_1_5533" x="94.1863" y="130.5" width="37.657" height="43.5" filterUnits="userSpaceOnUse" color-interpolation-filters="sRGB">
<feFlood flood-opacity="0" result="BackgroundImageFix"/>
<feColorMatrix in="SourceAlpha" type="matrix" values="0 0 0 0 0 0 0 0 0 0 0 0 0 0 0 0 0 0 127 0" result="hardAlpha"/>
<feOffset dy="-1"/>
<feGaussianBlur stdDeviation="2"/>
<feComposite in2="hardAlpha" operator="out"/>
<feColorMatrix type="matrix" values="0 0 0 0 0.861719 0 0 0 0 0.861719 0 0 0 0 0.861719 0 0 0 0.6 0"/>
<feBlend mode="normal" in2="BackgroundImageFix" result="effect1_dropShadow_1_5533"/>
<feBlend mode="normal" in="SourceGraphic" in2="effect1_dropShadow_1_5533" result="shape"/>
</filter>
</defs>
</svg>
