<svg width="24" height="24" viewBox="0 0 24 24" fill="none" xmlns="http://www.w3.org/2000/svg">
<path d="M15.9805 3.49024C15.7207 3.49798 15.4741 3.60656 15.293 3.79298L7.79296 11.293C7.60549 11.4805 7.50018 11.7348 7.50018 12C7.50018 12.2652 7.60549 12.5195 7.79296 12.707L15.293 20.207C15.3851 20.303 15.4955 20.3796 15.6176 20.4324C15.7397 20.4852 15.8712 20.5131 16.0042 20.5145C16.1372 20.5158 16.2692 20.4906 16.3924 20.4403C16.5156 20.39 16.6275 20.3157 16.7216 20.2216C16.8156 20.1275 16.89 20.0156 16.9403 19.8924C16.9906 19.7692 17.0158 19.6373 17.0144 19.5042C17.0131 19.3712 16.9852 19.2397 16.9324 19.1176C16.8796 18.9955 16.803 18.8851 16.707 18.793L9.91405 12L16.707 5.20704C16.8515 5.06658 16.9502 4.88574 16.9902 4.68822C17.0301 4.4907 17.0095 4.28571 16.931 4.10013C16.8524 3.91454 16.7196 3.75701 16.55 3.64818C16.3804 3.53935 16.1819 3.4843 15.9805 3.49024Z" fill="#637394"/>
</svg>
