<svg width="33" height="37" viewBox="0 0 33 37" fill="none" xmlns="http://www.w3.org/2000/svg">
<g clip-path="url(#clip0_270_2167)">
<path fill-rule="evenodd" clip-rule="evenodd" d="M31.1137 11.2718C32.1781 11.2057 33 10.3336 33 9.2896V4.625C33 2.0746 30.8847 0 28.2844 0H18.8321C17.7275 0 16.8321 0.8954 16.8321 2V2.6429C16.8321 3.7396 15.9293 4.625 14.8111 4.625C13.6928 4.625 12.7901 3.7396 12.7901 2.6429V2C12.7901 0.8954 11.8946 0 10.7901 0H4.7156C2.1153 0 0 2.0746 0 4.625V32.375C0 34.9254 2.1153 37 4.7156 37H10.7901C11.8946 37 12.7901 36.1046 12.7901 35V34.3571C12.7901 33.2604 13.6928 32.375 14.8111 32.375C15.9293 32.375 16.832 33.2604 16.832 34.3571V35C16.832 36.1046 17.7275 37 18.832 37H28.2843C30.8847 37 33 34.9254 33 32.375V27.7104C33 26.6664 32.1781 25.7943 31.1137 25.7282C27.2604 25.4904 24.2424 22.3057 24.2424 18.5C24.2424 14.6943 27.2604 11.5096 31.1137 11.2718ZM14.8111 28.4107C15.9293 28.4107 16.832 27.5254 16.832 26.4286V22.4643C16.832 21.3675 15.9293 20.4821 14.8111 20.4821C13.6928 20.4821 12.7901 21.3675 12.7901 22.4643V26.4286C12.7901 27.5254 13.6928 28.4107 14.8111 28.4107ZM14.8111 16.5179C15.9293 16.5179 16.832 15.6325 16.832 14.5357V10.5714C16.832 9.4746 15.9293 8.5893 14.8111 8.5893C13.6928 8.5893 12.7901 9.4746 12.7901 10.5714V14.5357C12.7901 15.6325 13.6928 16.5179 14.8111 16.5179Z" fill="white"/>
<path fill-rule="evenodd" clip-rule="evenodd" d="M12.8378 33.926C9.2141 30.0042 7 24.7607 7 19C7 13.0822 9.3365 7.7101 13.1374 3.756C13.5005 4.2809 14.1139 4.625 14.8111 4.625C15.9293 4.625 16.8321 3.7396 16.8321 2.6429V2C16.8321 0.8954 17.7275 0 18.8321 0H28.2844C30.8847 0 33 2.0746 33 4.625V9.2896C33 10.3336 32.1781 11.2057 31.1137 11.2718C27.2604 11.5096 24.2424 14.6943 24.2424 18.5C24.2424 22.3057 27.2604 25.4904 31.1137 25.7282C32.1781 25.7943 33 26.6664 33 27.7104V32.375C33 34.9254 30.8847 37 28.2843 37H18.832C17.7275 37 16.832 36.1046 16.832 35V34.3571C16.832 33.2604 15.9293 32.375 14.8111 32.375C13.8438 32.375 13.0378 33.0374 12.8378 33.926ZM16.832 26.4286C16.832 27.5254 15.9293 28.4107 14.8111 28.4107C13.6928 28.4107 12.7901 27.5254 12.7901 26.4286V22.4643C12.7901 21.3675 13.6928 20.4821 14.8111 20.4821C15.9293 20.4821 16.832 21.3675 16.832 22.4643V26.4286ZM16.832 14.5357C16.832 15.6325 15.9293 16.5179 14.8111 16.5179C13.6928 16.5179 12.7901 15.6325 12.7901 14.5357V10.5714C12.7901 9.4746 13.6928 8.5893 14.8111 8.5893C15.9293 8.5893 16.832 9.4746 16.832 10.5714V14.5357Z" fill="#FF8036"/>
</g>
<defs>
<clipPath id="clip0_270_2167">
<rect width="33" height="37" fill="white"/>
</clipPath>
</defs>
</svg>
