<svg width="25" height="24" viewBox="0 0 25 24" fill="none" xmlns="http://www.w3.org/2000/svg">
<path d="M3.4265 20.4965C3.451 20.499 3.476 20.5 3.5005 20.5C3.8545 20.5 4.1645 20.2505 4.2355 19.897C5.2845 14.649 10.754 14.2755 13.25 14.3915V18.25C13.25 18.553 13.4325 18.8265 13.713 18.943C13.993 19.0585 14.3155 18.995 14.5305 18.7805L21.5305 11.7805C21.8235 11.488 21.8235 11.0125 21.5305 10.72L14.5305 3.72C14.316 3.5055 13.9935 3.441 13.713 3.5575C13.4325 3.673 13.25 3.9465 13.25 4.25V8.0975C10.4335 8.4655 2.75 10.3335 2.75 19.75C2.75 20.1355 3.0425 20.4585 3.4265 20.4965Z" fill="white"/>
</svg>
